<svg width="14" height="14" viewBox="0 0 14 14" fill="none" xmlns="http://www.w3.org/2000/svg">
<path d="M9 5V3.13346C9 2.38673 9 2.01308 8.85468 1.72786C8.72684 1.47698 8.52302 1.27316 8.27214 1.14532C7.98692 1 7.61327 1 6.86654 1H3.1332C2.38647 1 2.01329 1 1.72808 1.14532C1.4772 1.27316 1.27301 1.47698 1.14518 1.72786C0.999858 2.01308 0.999858 2.38645 0.999858 3.13319V6.86654C0.999858 7.61327 0.999858 7.98664 1.14518 8.27186C1.27301 8.52274 1.47739 8.72699 1.72827 8.85482C2.01321 9 2.386 9 3.13128 9H5M9 5H10.8665C11.6133 5 11.9869 5 12.2721 5.14532C12.523 5.27316 12.7268 5.47698 12.8547 5.72786C13 6.01308 13 6.38673 13 7.13346V10.8668C13 11.6135 13 11.9867 12.8547 12.2719C12.7268 12.5228 12.523 12.727 12.2721 12.8548C11.9872 13 11.614 13 10.8687 13H7.13097C6.38569 13 6.01302 13 5.72808 12.8548C5.4772 12.727 5.27301 12.5226 5.14518 12.2717C5 11.9868 5 11.614 5 10.8687V9M9 5H7.1332C6.38647 5 6.01329 5 5.72808 5.14532C5.4772 5.27316 5.27301 5.47698 5.14518 5.72786C5 6.0128 5 6.386 5 7.1313L5 9" stroke="white" stroke-width="1.5" stroke-linecap="round" stroke-linejoin="round"/>
</svg>
