<svg width="18" height="16" viewBox="0 0 18 16" fill="none" xmlns="http://www.w3.org/2000/svg">
<path d="M1.88889 2.66672L7.3179 6.76651L7.31971 6.76801C7.92253 7.21008 8.22412 7.43125 8.55445 7.51669C8.84643 7.59221 9.15334 7.59221 9.44531 7.51669C9.77593 7.43118 10.0784 7.20936 10.6823 6.76651C10.6823 6.76651 14.1645 4.09422 16.1111 2.66672M1 11.378V4.62245C1 3.6268 1 3.12861 1.19377 2.74832C1.36421 2.41381 1.63598 2.14204 1.97049 1.9716C2.35077 1.77783 2.84897 1.77783 3.84462 1.77783H14.1557C15.1514 1.77783 15.6485 1.77783 16.0288 1.9716C16.3633 2.14204 16.636 2.41381 16.8064 2.74832C17 3.12823 17 3.62583 17 4.61953V11.381C17 12.3747 17 12.8716 16.8064 13.2515C16.636 13.586 16.3633 13.8583 16.0288 14.0287C15.6489 14.2223 15.152 14.2223 14.1583 14.2223H3.8417C2.84799 14.2223 2.3504 14.2223 1.97049 14.0287C1.63598 13.8583 1.36421 13.586 1.19377 13.2515C1 12.8712 1 12.3737 1 11.378Z" stroke="white" stroke-width="2" stroke-linecap="round" stroke-linejoin="round"/>
</svg>
